<?xml version="1.0" encoding="UTF-8"?>
<svg id="Layer_1" xmlns="http://www.w3.org/2000/svg" version="1.1" viewBox="0 0 1000 604.8">
  <!-- Generator: Adobe Illustrator 29.6.1, SVG Export Plug-In . SVG Version: 2.1.1 Build 9)  -->
  <defs>
    <style>
      .st0 {
        fill: #293f43;
      }
    </style>
  </defs>
  <g>
    <g>
      <path class="st0" d="M37.2,445.8h54.2v11.5h-20.9v59.7h-12.5v-59.7h-20.9v-11.5Z"/>
      <path class="st0" d="M101.9,517v-71.2h44.2v11.5h-31.8v18.3h28.5v11h-28.5v18.9h31.8v11.5h-44.2Z"/>
      <path class="st0" d="M160.7,517v-71.2h12.4l33.4,50.5v-50.5h12.3v71.2h-12.3l-33.5-50.5v50.5h-12.3Z"/>
      <path class="st0" d="M248,487.9v29.1h-12.5v-71.2h44v11.5h-31.6v19.4h26.5v11.2h-26.5Z"/>
      <path class="st0" d="M322.1,518.2c-20.4,0-34.4-15.1-34.4-36.8s14.1-36.8,34.5-36.8,34.6,15.1,34.6,36.8-14.2,36.8-34.7,36.8ZM322.2,456.5c-13.1,0-21.4,9.6-21.4,24.8s8.4,24.8,21.4,24.8,21.4-9.8,21.4-24.8-8.4-24.8-21.4-24.8Z"/>
      <path class="st0" d="M381.8,505.5h29.8v11.5h-42.3v-71.2h12.5v59.7Z"/>
      <path class="st0" d="M422.7,517v-71.2h24.9c21,0,35.6,14.5,35.6,35.8s-14.2,35.5-34.9,35.5h-25.6ZM435.2,457.3v48.2h12c14.2,0,22.9-9.2,22.9-24s-8.9-24.3-23.6-24.3h-11.3Z"/>
      <path class="st0" d="M515,481.4c0-22.1,13.9-36.8,34.8-36.8s29.4,9.8,31.9,25.1h-13.2c-2.4-8.3-9.5-13.2-19-13.2s-21.4,9.5-21.4,24.7,8.4,24.8,21.4,24.8,17.1-5.1,19.4-13h13c-2.7,15-15.8,24.9-32.6,24.9s-34.2-14.4-34.2-36.7Z"/>
      <path class="st0" d="M584.2,517l25.7-71.2h12.8l25.7,71.2h-13.2l-5.7-16.5h-26.6l-5.8,16.5h-13ZM606.6,490h19.3l-8.2-23c-.6-1.9-1.3-4-1.5-5.5-.3,1.4-.9,3.5-1.6,5.5l-8.1,23Z"/>
      <path class="st0" d="M670.8,492.5v24.6h-12.5v-71.2h28.2c14.3,0,23.6,9.4,23.6,23.3s-9.4,23.4-23.6,23.4h-15.7ZM670.8,456.9v24.5h13.1c8.6,0,13.2-4.6,13.2-12.4s-4.7-12.1-13-12.1h-13.3Z"/>
      <path class="st0" d="M715.4,445.8h54.2v11.5h-20.9v59.7h-12.5v-59.7h-20.9v-11.5Z"/>
      <path class="st0" d="M779.6,445.8h12.5v44.4c0,10.2,5.6,15.9,15.7,15.9s15.8-5.7,15.8-15.9v-44.4h12.5v45.2c0,16.7-10.9,27.2-28.3,27.2s-28.2-10.4-28.2-27.2v-45.2Z"/>
      <path class="st0" d="M852.3,517v-71.2h27.2c16.2,0,25.6,8.2,25.6,22.2s-4.5,16.4-12.9,19.8l13.5,29.2h-13.6l-12.1-26.6h-15.3v26.6h-12.5ZM864.7,479.4h14.7c7.9,0,12.6-4.2,12.6-11.4s-4.7-11.1-12.6-11.1h-14.7v22.5Z"/>
      <path class="st0" d="M918.5,517v-71.2h44.2v11.5h-31.8v18.3h28.5v11h-28.5v18.9h31.8v11.5h-44.2Z"/>
    </g>
    <g>
      <path class="st0" d="M41,575.6v-28h17.1v3.5h-13.3v8.7h12v3.4h-12v8.9h13.3v3.5h-17.1Z"/>
      <path class="st0" d="M63.4,547.6h4.1l6.8,17.9c.6,1.6,1.2,3.2,1.7,5.3.7-2.2,1.3-4.1,1.8-5.3l6.8-17.8h3.9l-10.5,28h-3.9l-10.6-28Z"/>
      <path class="st0" d="M94.9,575.6v-28h17.1v3.5h-13.3v8.7h12v3.4h-12v8.9h13.3v3.5h-17.1Z"/>
      <path class="st0" d="M120.2,575.6v-28h10.6c6,0,9.6,3.2,9.6,8.4s-1.9,6.7-5.4,7.8l5.7,11.8h-4.2l-5.2-11.1h-7.2v11.1h-3.8ZM124,561.1h6.8c3.5,0,5.5-1.9,5.5-5.1s-2.1-5-5.6-5h-6.8v10.1Z"/>
      <path class="st0" d="M144.8,547.6h4.3l6.2,11.2c.4.7.6,1.2.9,1.9.3-.7.4-.9.9-1.9l6.2-11.2h4.1l-9.4,16.6v11.4h-3.8v-11.4l-9.5-16.6Z"/>
      <path class="st0" d="M184.3,575.6l10.2-28h4.2l10.3,28h-4l-2.5-7h-11.8l-2.5,7h-3.9ZM191.9,565.3h9.5l-4.3-11.7c-.2-.5-.4-1.2-.5-1.6,0,.4-.3,1-.5,1.6l-4.3,11.7Z"/>
      <path class="st0" d="M215.4,575.6v-28h3.8l14.3,21.6v-21.6h3.8v28h-3.8l-14.3-21.6v21.6h-3.8Z"/>
      <path class="st0" d="M248.9,561.7c0,6.8,3.9,10.7,9.7,10.7s8.6-2.4,8.6-8.1v-.8h-9.4v-3.4h12.9v15.4h-3.2l-.3-3.8c-1.5,2.4-4.9,4.2-9,4.2-7.9,0-13.4-5.7-13.4-14.4s5.5-14.6,13.7-14.6,10.9,3.5,11.8,8.9h-4c-1-3.6-4.1-5.3-7.9-5.3-6,0-9.7,4.5-9.7,11.1Z"/>
      <path class="st0" d="M282.6,572h12.3v3.5h-16.1v-28h3.8v24.5Z"/>
      <path class="st0" d="M301.8,575.6v-28h17.1v3.5h-13.3v8.7h12v3.4h-12v8.9h13.3v3.5h-17.1Z"/>
      <path class="st0" d="M339.6,573.3c0-1.5,1.3-2.7,2.8-2.7s2.7,1.2,2.7,2.7-1.3,2.7-2.7,2.7-2.8-1.2-2.8-2.7Z"/>
      <path class="st0" d="M367,575.6v-28h17.1v3.5h-13.3v8.7h12v3.4h-12v8.9h13.3v3.5h-17.1Z"/>
      <path class="st0" d="M389.4,547.6h4.1l6.8,17.9c.6,1.6,1.2,3.2,1.7,5.3.7-2.2,1.3-4.1,1.8-5.3l6.8-17.8h3.9l-10.5,28h-3.9l-10.6-28Z"/>
      <path class="st0" d="M420.8,575.6v-28h17.1v3.5h-13.3v8.7h12v3.4h-12v8.9h13.3v3.5h-17.1Z"/>
      <path class="st0" d="M446.1,575.6v-28h10.6c6,0,9.6,3.2,9.6,8.4s-1.9,6.7-5.4,7.8l5.7,11.8h-4.2l-5.2-11.1h-7.2v11.1h-3.8ZM449.9,561.1h6.8c3.5,0,5.5-1.9,5.5-5.1s-2.1-5-5.6-5h-6.8v10.1Z"/>
      <path class="st0" d="M470.7,547.6h4.3l6.2,11.2c.4.7.6,1.2.9,1.9.3-.7.4-.9.9-1.9l6.2-11.2h4.1l-9.4,16.6v11.4h-3.8v-11.4l-9.5-16.6Z"/>
      <path class="st0" d="M521,547.1c5.3,0,8.8,3,9.1,7.8h-3.8c-.2-2.8-2.2-4.4-5.3-4.4s-5.8,1.8-5.8,4.5,1.3,3.6,3.9,4.2l4.6,1.1c4.6,1,6.9,3.5,6.9,7.5s-3.9,8.2-9.9,8.2-9.5-3-9.7-7.8h3.9c0,2.7,2.3,4.4,5.8,4.4s6.1-1.7,6.1-4.5-1.2-3.6-3.9-4.2l-4.6-1c-4.6-1-6.9-3.7-6.9-7.7s3.9-8.1,9.6-8.1Z"/>
      <path class="st0" d="M541.8,565.6v10h-3.8v-28h10.9c5.5,0,9,3.6,9,9s-3.6,9-9,9h-7.1ZM541.8,551v11.2h6.3c3.8,0,5.8-2.2,5.8-5.7s-2.1-5.5-5.7-5.5h-6.4Z"/>
      <path class="st0" d="M560.8,575.6l10.2-28h4.2l10.3,28h-4l-2.5-7h-11.8l-2.5,7h-3.9ZM568.4,565.3h9.5l-4.3-11.7c-.2-.5-.4-1.2-.5-1.6,0,.4-.3,1-.5,1.6l-4.3,11.7Z"/>
      <path class="st0" d="M589.1,561.6c0-8.6,5.5-14.5,13.5-14.5s11.1,3.8,12.2,9.5h-4.1c-1-3.6-4.2-5.8-8.2-5.8s-9.4,4.3-9.4,10.8,3.7,10.8,9.4,10.8,7.4-2.2,8.4-5.6h4c-1.2,5.6-6.2,9.3-12.5,9.3s-13.3-5.7-13.3-14.4Z"/>
      <path class="st0" d="M622.2,575.6v-28h17.1v3.5h-13.3v8.7h12v3.4h-12v8.9h13.3v3.5h-17.1Z"/>
      <path class="st0" d="M660,573.3c0-1.5,1.3-2.7,2.8-2.7s2.7,1.2,2.7,2.7-1.3,2.7-2.7,2.7-2.8-1.2-2.8-2.7Z"/>
      <path class="st0" d="M687.4,575.6v-28h17.1v3.5h-13.3v8.7h12v3.4h-12v8.9h13.3v3.5h-17.1Z"/>
      <path class="st0" d="M709.8,547.6h4.1l6.8,17.9c.6,1.6,1.2,3.2,1.7,5.3.7-2.2,1.3-4.1,1.8-5.3l6.8-17.8h3.9l-10.5,28h-3.9l-10.6-28Z"/>
      <path class="st0" d="M741.3,575.6v-28h17.1v3.5h-13.3v8.7h12v3.4h-12v8.9h13.3v3.5h-17.1Z"/>
      <path class="st0" d="M766.5,575.6v-28h10.6c6,0,9.6,3.2,9.6,8.4s-1.9,6.7-5.4,7.8l5.7,11.8h-4.2l-5.2-11.1h-7.2v11.1h-3.8ZM770.3,561.1h6.8c3.5,0,5.5-1.9,5.5-5.1s-2.1-5-5.6-5h-6.8v10.1Z"/>
      <path class="st0" d="M791.1,547.6h4.3l6.2,11.2c.4.7.6,1.2.9,1.9.3-.7.4-.9.9-1.9l6.2-11.2h4.1l-9.4,16.6v11.4h-3.8v-11.4l-9.5-16.6Z"/>
      <path class="st0" d="M817.5,547.6h3.9l5.1,17.1c.4,1.5.8,2.9,1.2,5.1.5-2.2.9-3.6,1.3-5.1l5.3-17.1h4.1l5.3,17.1c.5,1.5.9,3,1.3,5.1.5-2.4.9-3.8,1.2-5l5.1-17.1h3.9l-8.4,28h-3.6l-6.8-22.1-6.8,22.1h-3.7l-8.3-28Z"/>
      <path class="st0" d="M861.8,575.6v-28h3.8v12h13.9v-12h3.8v28h-3.8v-12.4h-13.9v12.4h-3.8Z"/>
      <path class="st0" d="M892.4,575.6v-28h17.1v3.5h-13.3v8.7h12v3.4h-12v8.9h13.3v3.5h-17.1Z"/>
      <path class="st0" d="M917.7,575.6v-28h10.6c6,0,9.6,3.2,9.6,8.4s-1.9,6.7-5.4,7.8l5.7,11.8h-4.2l-5.2-11.1h-7.2v11.1h-3.8ZM921.5,561.1h6.8c3.5,0,5.5-1.9,5.5-5.1s-2.1-5-5.6-5h-6.8v10.1Z"/>
      <path class="st0" d="M945.7,575.6v-28h17.1v3.5h-13.3v8.7h12v3.4h-12v8.9h13.3v3.5h-17.1Z"/>
    </g>
  </g>
  <g>
    <g>
      <path class="st0" d="M447,212.9l15.5-2.2c-2.8-19.8,9-38.3,27.2-44.6l12.6,88.3,15.5-2.2-12.6-88.3c19.2,1,35.8,15.5,38.6,35.2l15.5-2.2c-4.4-31-33.2-52.6-64.1-48.2-31,4.4-52.6,33.2-48.1,64.1Z"/>
      <path class="st0" d="M656.5,28.8l-61.3,8.7h0c2.9,2.4,4.6,3.7,7.5,6l25.2-3.6,1.8,12.5-106.3,36.6-1.5-2.8c-5.8-2.6-19.7-8-37.3-5.2-16.6,2.6-27.8,11-32.6,15.1-.2,1-.4,2-.6,3l-112-5.5-1.8-12.5,25.2-3.6c2.2-3,3.4-4.7,5.6-7.7h0c0-.1-61.3,8.6-61.3,8.6-2.2,3-3.4,4.7-5.6,7.7h0c0,.1,31.8-4.4,31.8-4.4l1.7,11.7,1,7.3.5,3.5,110.2,17.9c-.8,3.6-.5,14.3-1.3,18l-18.3,2.6-.5-3.6c-.5-3.3-3.6-5.6-6.9-5.2l-18.1,2.6c-3.3.5-5.6,3.6-5.2,6.9l.5,3.6-14.7,2.1c-11.4,1.6-19.4,12.3-17.8,23.7l14.5,101.6c1.6,11.4,12.3,19.4,23.7,17.8l67.3-9.6c13.8,5.9,29.3,8.3,45.2,6s30.1-8.8,41.7-18.4l65.6-9.3c11.4-1.6,19.4-12.3,17.8-23.7l-14.5-101.6c-1.6-11.4-12.3-19.4-23.7-17.8l-61.5,8.8-6.2-16.8,101.1-48-.5-3.5-1-7.3-1.7-11.7,31.8-4.5h0c-2.9-2.4-4.6-3.7-7.5-6ZM400.4,276.7c-2.9.4-5.6-1.6-6-4.5l-14.5-101.6c-.4-2.9,1.6-5.6,4.5-6l48.6-6.9c-11.3,16.8-16.7,37.6-13.6,59.1,3.1,21.6,14.1,40.1,29.6,53l-48.6,6.9ZM569.3,185.4l15.6-2.2c-4.6-17.4-14.5-32.3-27.6-43.2l46.9-6.7c2.9-.4,5.6,1.6,6,4.5l14.5,101.6c.4,2.9-1.6,5.6-4.5,6l-47,6.7c9.6-14.2,14.9-31.3,14.5-49.2l-15.6,2.2c0,33.7-24.9,63.1-59.2,68-37.7,5.4-72.6-20.9-78-58.6-5.4-37.6,20.9-72.6,58.6-78,34.3-4.9,66.4,16.5,75.9,48.8Z"/>
    </g>
    <g>
      <rect class="st0" x="513.9" y="280.2" width="15.6" height="111" transform="translate(-42.1 76.8) rotate(-8.1)"/>
      <polygon class="st0" points="468.5 399.3 500.3 282.7 484.8 284.9 453 401.5 468.5 399.3"/>
      <polygon class="st0" points="606.4 379.7 543.4 276.5 527.9 278.7 590.9 381.9 606.4 379.7"/>
    </g>
  </g>
</svg>